<mxfile host="Electron" modified="2024-05-23T16:20:48.577Z" agent="Mozilla/5.0 (Windows NT 10.0; WOW64) AppleWebKit/537.36 (KHTML, like Gecko) draw.io/24.4.0 Chrome/120.0.6099.109 Electron/28.1.0 Safari/537.36" etag="TxFwjHCTvlAxa5bcrnl2" version="24.4.0" type="device">
  <diagram name="Страница — 1" id="W49qI9BpBHsVanBY0ro3">
    <mxGraphModel dx="1562" dy="916" grid="1" gridSize="10" guides="1" tooltips="1" connect="1" arrows="1" fold="1" page="1" pageScale="1" pageWidth="827" pageHeight="1169" math="0" shadow="0">
      <root>
        <mxCell id="0" />
        <mxCell id="1" parent="0" />
        <mxCell id="5hD4o_PdOG4SJJy76j6F-6" style="rounded=0;orthogonalLoop=1;jettySize=auto;html=1;exitX=0.25;exitY=1;exitDx=0;exitDy=0;entryX=0.5;entryY=0;entryDx=0;entryDy=0;endArrow=none;endFill=0;startArrow=classicThin;startFill=1;" edge="1" parent="1" source="5hD4o_PdOG4SJJy76j6F-1" target="5hD4o_PdOG4SJJy76j6F-2">
          <mxGeometry relative="1" as="geometry" />
        </mxCell>
        <mxCell id="5hD4o_PdOG4SJJy76j6F-7" style="rounded=0;orthogonalLoop=1;jettySize=auto;html=1;exitX=0.75;exitY=1;exitDx=0;exitDy=0;endArrow=none;endFill=0;startArrow=classicThin;startFill=1;" edge="1" parent="1" source="5hD4o_PdOG4SJJy76j6F-1" target="5hD4o_PdOG4SJJy76j6F-3">
          <mxGeometry relative="1" as="geometry" />
        </mxCell>
        <mxCell id="5hD4o_PdOG4SJJy76j6F-1" value="&lt;b&gt;K1&lt;/b&gt;" style="rounded=0;whiteSpace=wrap;html=1;" vertex="1" parent="1">
          <mxGeometry x="290" y="190" width="80" height="40" as="geometry" />
        </mxCell>
        <mxCell id="5hD4o_PdOG4SJJy76j6F-2" value="&lt;b&gt;K2&lt;/b&gt;" style="rounded=0;whiteSpace=wrap;html=1;" vertex="1" parent="1">
          <mxGeometry x="230" y="270" width="80" height="40" as="geometry" />
        </mxCell>
        <mxCell id="5hD4o_PdOG4SJJy76j6F-8" style="rounded=0;orthogonalLoop=1;jettySize=auto;html=1;exitX=0.25;exitY=1;exitDx=0;exitDy=0;entryX=0.5;entryY=0;entryDx=0;entryDy=0;endArrow=none;endFill=0;startArrow=classicThin;startFill=1;" edge="1" parent="1" source="5hD4o_PdOG4SJJy76j6F-3" target="5hD4o_PdOG4SJJy76j6F-4">
          <mxGeometry relative="1" as="geometry" />
        </mxCell>
        <mxCell id="5hD4o_PdOG4SJJy76j6F-9" style="rounded=0;orthogonalLoop=1;jettySize=auto;html=1;exitX=0.75;exitY=1;exitDx=0;exitDy=0;entryX=0.5;entryY=0;entryDx=0;entryDy=0;endArrow=none;endFill=0;startArrow=classicThin;startFill=1;" edge="1" parent="1" source="5hD4o_PdOG4SJJy76j6F-3" target="5hD4o_PdOG4SJJy76j6F-5">
          <mxGeometry relative="1" as="geometry" />
        </mxCell>
        <mxCell id="5hD4o_PdOG4SJJy76j6F-3" value="&lt;b&gt;K3&lt;/b&gt;" style="rounded=0;whiteSpace=wrap;html=1;" vertex="1" parent="1">
          <mxGeometry x="350" y="270" width="80" height="40" as="geometry" />
        </mxCell>
        <mxCell id="5hD4o_PdOG4SJJy76j6F-4" value="&lt;b&gt;K4&lt;/b&gt;" style="rounded=0;whiteSpace=wrap;html=1;" vertex="1" parent="1">
          <mxGeometry x="290" y="350" width="80" height="40" as="geometry" />
        </mxCell>
        <mxCell id="5hD4o_PdOG4SJJy76j6F-5" value="&lt;b&gt;K5&lt;/b&gt;" style="rounded=0;whiteSpace=wrap;html=1;" vertex="1" parent="1">
          <mxGeometry x="400" y="350" width="80" height="40" as="geometry" />
        </mxCell>
      </root>
    </mxGraphModel>
  </diagram>
</mxfile>
